<?xml version="1.0" encoding="utf-8"?>
<!-- Generator: Adobe Illustrator 19.2.0, SVG Export Plug-In . SVG Version: 6.00 Build 0)  -->
<svg version="1.1" id="Layer_1" xmlns="http://www.w3.org/2000/svg" xmlns:xlink="http://www.w3.org/1999/xlink" x="0px" y="0px"
	 viewBox="0 0 1920 1080" style="enable-background:new 0 0 1920 1080;" xml:space="preserve">
<style type="text/css">
	.st0{fill:#E6E6E6;}
	.st1{fill:#00A99D;}
	.st2{fill:#1E3947;}
	.st3{fill:#F8C09D;}
	.st4{fill:#42210B;}
	.st5{fill:#2A4C66;}
	.st6{fill:#754C24;}
	.st7{fill:#603813;}
	.st8{fill:#A67C52;}
	.st9{fill:#F6AE8D;}
	.st10{fill:#EF937E;}
	.st11{fill:none;stroke:#EF937E;stroke-width:3;stroke-linecap:round;stroke-miterlimit:10;}
	.st12{fill:none;stroke:#E6E6E6;stroke-width:7.9996;stroke-miterlimit:10;}
	.st13{fill:none;stroke:#808080;stroke-width:2.9999;stroke-miterlimit:10;}
	.st14{fill:none;stroke:#808080;stroke-width:3;stroke-linecap:round;stroke-miterlimit:10;}
	.st15{fill:#E26C60;}
	.st16{fill:#333333;}
	.st17{fill:#F2F2F2;}
	.st18{fill:#CCCCCC;}
	.st19{fill:#FFFFFF;}
	.st20{fill:#E53542;}
	.st21{fill:#CE2439;}
	.st22{clip-path:url(#SVGID_2_);fill:none;stroke:#E6E6E6;stroke-width:1.9999;stroke-miterlimit:10;}
	.st23{fill:none;stroke:#E6E6E6;stroke-width:3.9998;stroke-miterlimit:10;}
	.st24{fill:#7C3E0B;}
	.st25{fill:#5E2E0A;}
	.st26{fill:#965422;}
	.st27{clip-path:url(#SVGID_4_);fill:none;stroke:#E6E6E6;stroke-width:1.9999;stroke-miterlimit:10;}
	.st28{fill:#44A0C1;}
	.st29{fill:#1A1A1A;}
	.st30{fill:#443833;}
	.st31{fill:none;stroke:#FFFFFF;stroke-width:2.483;stroke-miterlimit:10;}
	.st32{fill:none;stroke:#1A1A1A;stroke-width:4.9661;stroke-miterlimit:10;}
	.st33{fill:none;stroke:#1A1A1A;stroke-width:5.6019;stroke-miterlimit:10;}
	.st34{fill:#738891;}
	.st35{fill:#BBEAE4;}
	.st36{fill:#96E2D7;}
	.st37{fill:#75D3C3;}
	.st38{fill:none;stroke:#808080;stroke-width:2.4075;stroke-linecap:round;stroke-miterlimit:10;}
	.st39{fill:#703B21;}
	.st40{fill:none;stroke:#91A89D;stroke-width:2.9103;stroke-miterlimit:10;}
	.st41{fill:none;stroke:#91A89D;stroke-width:2.9103;stroke-linecap:round;stroke-miterlimit:10;}
</style>
<g>
	<g>
		<path class="st0" d="M1514.7,729.7l4.1-0.2c8.6-0.4,16.2-8.6,18.3-19.5l39.4-202.8c1.3-6.9-1.9-13.3-7.2-14.2l0,0
			c-5-0.8-10,3.7-11.2,10.2L1514.7,729.7z"/>
		<path class="st1" d="M1355.4,711.7h135.9c11,0,19.9-8.9,19.9-19.9v0c0-11-8.9-19.9-19.9-19.9h-135.9c-11,0-19.9,8.9-19.9,19.9v0
			C1335.5,702.8,1344.4,711.7,1355.4,711.7z"/>
		<path class="st1" d="M1535.8,616l22.8-113.6c2.2-10.8-4.8-21.3-15.6-23.4l0,0c-10.8-2.2-21.3,4.8-23.4,15.6l-22.8,113.6
			c-2.2,10.8,4.8,21.3,15.6,23.4h0C1523.2,633.7,1533.7,626.7,1535.8,616z"/>
		<path class="st0" d="M1515.8,711.7h-160c-5,0-9.1,4.1-9.1,9.1l0,0c0,5,4.1,9.1,9.1,9.1h160c5,0,9.1-4.1,9.1-9.1l0,0
			C1524.9,715.8,1520.8,711.7,1515.8,711.7z"/>
		<path class="st0" d="M1334.7,901.9L1334.7,901.9c-4.2,0-7.2-3.9-6.2-8l41.8-169.7h13.3L1341,897
			C1340.3,899.9,1337.7,901.9,1334.7,901.9z"/>
		<path class="st0" d="M1546.1,901.9L1546.1,901.9c4.2,0,7.2-3.9,6.2-8l-41.8-169.7h-13.3l42.6,172.7
			C1540.5,899.9,1543.1,901.9,1546.1,901.9z"/>
	</g>
	<path class="st2" d="M1309.1,557.1L1309.1,557.1c7.9,6.4,19.6,5.1,25.9-2.8l76.4-95.2c6.4-7.9,5.1-19.6-2.8-25.9v0
		c-7.9-6.4-21.9,0.1-32,11.2l-70.3,86.9C1299.8,539.1,1301.1,550.7,1309.1,557.1z"/>
	<path class="st2" d="M1340.5,549.4L1340.5,549.4c2.9-9.8-2.6-20-12.4-23l-99.4-29.9l-10.6,35.3l99.4,29.9
		C1327.3,564.7,1337.6,559.2,1340.5,549.4z"/>
	<g>
		<path class="st3" d="M1217.4,522.3l-2.2,11l-34.3-6.7c-3-0.6-5-3.5-4.4-6.6l0,0c0.6-3,3.5-5,6.6-4.4L1217.4,522.3z"/>
		<path class="st3" d="M1219.6,510.8l-2.5,10.9l-41.2-9.6c-3-0.7-4.9-3.7-4.2-6.7v0c0.7-3,3.7-4.9,6.7-4.2L1219.6,510.8z"/>
		<path class="st3" d="M1217.9,500l-3.7,10.6l-39.9-13.9c-2.9-1-4.5-4.2-3.4-7.1v0c1-2.9,4.2-4.5,7.1-3.4L1217.9,500z"/>
		<path class="st3" d="M1225.5,494.4l-5.6,9.7l-36.7-21.1c-2.7-1.5-3.6-5-2.1-7.6l0,0c1.5-2.7,5-3.6,7.6-2.1L1225.5,494.4z"/>
		<path class="st3" d="M1233.4,495.2l-9.3,6.2l-14-21.3c-1.7-2.6-1-6.1,1.6-7.8l0,0c2.6-1.7,6.1-1,7.8,1.6L1233.4,495.2z"/>
		<path class="st3" d="M1228,490.7l-8.4-2.9c-1.5-0.5-3.2,0.3-3.8,1.8l-12.9,36.9c-0.5,1.5,0.3,3.2,1.8,3.8l8.4,2.9
			c5.8,2,12.2-1,14.2-6.9l7.5-21.4C1236.9,499.1,1233.8,492.7,1228,490.7z"/>
	</g>

		<rect x="1331.3" y="618.7" transform="matrix(-1 -3.368740e-11 3.368740e-11 -1 2808.4026 1260.3604)" class="st4" width="145.8" height="23"/>
	<path class="st5" d="M1471.5,453.8c-19.2-56.8-75-43.4-75-43.4c-15.9,0-65.1,15-65.1,56.4V619h146.5
		C1477.8,619,1490.1,508.8,1471.5,453.8z"/>
	<path class="st6" d="M1290.4,861l-11.4,40h-76.3c0,0,3-17.5,22.9-21.1c19.8-3.6,36.6,7,36.6,7l11-25.9H1290.4z"/>
	<path class="st6" d="M1225.4,861l-11.4,40h-76.3c0,0,3-17.5,22.9-21.1s36.6,7,36.6,7l11-25.9H1225.4z"/>
	<path class="st4" d="M1295.7,632.4l110.8-13.7l8.8,28.6c3.3,10.8-2.7,22.4-13.6,25.7l-98.4,7.7l-68.1,185.1h-46.5l66.4-187.9
		c8.3-22.4,15.4-42.2,33.3-44.5L1295.7,632.4z"/>
	<path class="st7" d="M1349.3,632.4l128.5-13.7l1.1,28.6c0.9,14.1-2.7,22.4-13.6,25.7l-108.4,7.7l-58.1,185.1h-46.5l56.4-187.9
		C1318.1,652,1322.2,636.9,1349.3,632.4L1349.3,632.4z"/>
	<path class="st8" d="M1344.5,558.9c14.3,0,23.6,14.4,23.6,28.6v18.4c0,7.2-4.2,11-9.3,11l0,0c-5.2,0-8.3-3.8-8.3-11v-10.5
		c0-8.6-0.9-15.5-9.1-15.5l0,0c-3.4,0-8.8,1.9-8.8,12v301.3c0,4.2-3.4,7.7-7.7,7.7h-2.6c-4.2,0-7.7-3.4-7.7-7.7V587.5
		c0-14.2,7-28.6,24.9-28.6H1344.5z"/>
	<path class="st2" d="M1479,596.8L1479,596.8c10-1.9,16.6-11.6,14.6-21.6l-23-119.9c-1.9-10-11.6-16.6-21.6-14.6l0,0
		c-10,1.9-16.6,11.6-14.6,21.6l23,119.9C1459.3,592.2,1469,598.7,1479,596.8z"/>
	<path class="st2" d="M1493.6,584L1493.6,584c1.4-10.1-5.7-19.4-15.8-20.8l-102.8-14.1l-5,36.6l102.8,14.1
		C1482.9,601.1,1492.2,594.1,1493.6,584z"/>
	<path class="st3" d="M1370.8,581.5c0,0-8.9-3.5-20-1.4c-11.1,2-19.3,6.3-22.8,6.4c-3.5,0.1-6.7-10.2,7.5-12c8.9-1.1,8.4-1,3.9-0.6
		s-9.5,1.8-14.3,6.6c-4.8,4.8-11.4,6.9-12.2,1.6s4.1-7.4,4.1-7.4s-6.2,1.3-6.6-3.3c-0.4-4.6,4.7-9.3,7.7-11.5c0,0-2-5.1,4.1-7
		s16.4-6.8,23.4-7.9c7-1.1,28.1,12.7,28.1,12.7L1370.8,581.5z"/>
	<path class="st0" d="M1295.5,317.9c0-27.9,0.6-60.2,35.9-80.5c48.6-28.1,84.9,8,84.9,8s25.4-2.5,40.9,28.6
		c13.1,26.2,7.9,45.7,5.6,57.4c-7,36.2-38.8,69.4-84.5,69.4C1332.5,400.7,1295.5,363.6,1295.5,317.9z"/>
	<circle class="st9" cx="1374.6" cy="422.5" r="26.1"/>
	<path class="st3" d="M1369.9,430.5c29-6.7,68.3-32.1,68.3-79.7v-46.2c0-16.9-13.7-30.6-30.6-30.6h-75.3
		c-16.9,0-30.6,13.7-30.6,30.6v57.5c0,18.9,5.7,42,23,57C1338.7,431.2,1356.8,433.6,1369.9,430.5z"/>
	<circle class="st3" cx="1438.6" cy="331.3" r="19.4"/>
	<path class="st10" d="M1442.5,334.1c0-3.8-3.1-6.9-6.9-6.9c-1,0-2,0.2-2.9,0.7c1.2-2,3.4-3.4,5.9-3.4c3.8,0,6.9,3.1,6.9,6.9
		c0,2.8-1.6,5.1-4,6.2C1442.2,336.5,1442.5,335.3,1442.5,334.1z"/>
	<path class="st0" d="M1301.7,296.6c0,0,15.2-18.9,40-18.9s49.4,6.8,49.4,6.8s18.9,34.2,31.4,36c17.3,2.4,16.1-8.6,16.1-8.6l0.1-48
		l-124,9.1L1301.7,296.6z"/>
	<line class="st11" x1="1326" y1="293.5" x2="1359" y2="293.5"/>
	<line class="st11" x1="1320" y1="304.5" x2="1365" y2="304.5"/>
	<path class="st12" d="M1304.5,322.7c0,0,5.3-1.5,8.3-1.5c6.4,0,10.4,2.4,10.4,2.4"/>
	<path class="st12" d="M1354.5,322.7c0,0,5.3-1.5,8.3-1.5c6.4,0,10.4,2.4,10.4,2.4"/>
	<path class="st13" d="M1359.5,347.4h10.6c8.3,0,15.1-6.8,15.1-15.1v0c0-8.3-6.8-15.1-15.1-15.1h-10.6c-8.3,0-15.1,6.8-15.1,15.1v0
		C1344.4,340.7,1351.1,347.4,1359.5,347.4z"/>
	<path class="st13" d="M1312.8,347.4h10.6c8.3,0,15.1-6.8,15.1-15.1v0c0-8.3-6.8-15.1-15.1-15.1h-10.6c-8.3,0-15.1,6.8-15.1,15.1v0
		C1297.7,340.7,1304.4,347.4,1312.8,347.4z"/>
	<line class="st13" x1="1346.1" y1="332.3" x2="1338.4" y2="332.5"/>
	<path class="st14" d="M1432,321.5c0,0-1.3,0-12.6,0c-10.7,0-34.4,11.3-34.4,11.3"/>
	<path class="st15" d="M1324.9,382.2c0,5.9,4.8,10.1,10.7,10.1h0c5.9,0,10.7-4.2,10.7-10.1"/>
	<path class="st0" d="M1314.2,379.7c-0.2-1.8,0.7-3.5,2.4-4.2c3.1-1.3,17-4.9,17-4.9s16.7,2.7,20.3,3.9c1.6,0.5,2.7,1.9,2.8,3.6
		l0.3,5.3c0.2,2.6-2.2,4.7-4.8,4.2c-5-1-18.6-3.7-18.6-3.7s-9.9,2.7-13.5,3.9c-2.4,0.8-4.9-0.8-5.3-3.3L1314.2,379.7z"/>
	<path class="st10" d="M1337.1,351.5v13.2c0,0.6-0.7,1.1-1.3,1.1h-7.8c-2.1,0-3.3-2.5-1.9-4.1l9-10.8
		C1335.7,350,1337.1,350.5,1337.1,351.5z"/>
	<ellipse class="st16" cx="1312.2" cy="334.2" rx="3.7" ry="6.5"/>
	<ellipse class="st16" cx="1362.7" cy="334.2" rx="3.7" ry="6.5"/>
	<g>
		<rect x="742.7" y="534.1" class="st16" width="41.2" height="56.1"/>
		<path class="st1" d="M853.5,695.5H672.2c-10.9,0-19.7-8.8-19.7-19.7v-79.5c0-10.9,8.8-19.7,19.7-19.7h181.3
			c10.9,0,19.7,8.8,19.7,19.7v79.5C873.2,686.7,864.4,695.5,853.5,695.5z"/>
		<path class="st1" d="M853.5,549.2H672.2c-10.9,0-19.7-8.8-19.7-19.7v-79.5c0-10.9,8.8-19.7,19.7-19.7h181.3
			c10.9,0,19.7,8.8,19.7,19.7v79.5C873.2,540.4,864.4,549.2,853.5,549.2z"/>
		<path class="st16" d="M774.8,723.5h-23.9c-6.5,0-11.8-5.3-11.8-11.8v-5.4h47.4v5.4C786.6,718.3,781.3,723.5,774.8,723.5z"/>
		<path class="st16" d="M845.7,708.1H680.1c-3.5,0-6.3-2.8-6.3-6.3l0,0c0-3.5,2.8-6.3,6.3-6.3h165.7c3.5,0,6.3,2.8,6.3,6.3l0,0
			C852,705.3,849.2,708.1,845.7,708.1z"/>
		<rect x="751.3" y="723.5" class="st0" width="23.1" height="73.7"/>
		<path class="st16" d="M778,797.2h-30.3c-4.7,0-8.6-3.8-8.6-8.6l0,0c0-4.7,3.8-8.6,8.6-8.6H778c4.7,0,8.6,3.8,8.6,8.6l0,0
			C786.6,793.4,782.8,797.2,778,797.2z"/>
		<path class="st0" d="M680.3,861.9h19.2l-0.2-18.1c2.5-4.6,6-8.6,10.2-11.7l57.9-34.8h-28.3l-46,29.4c-3.3,2.7-6.1,6-8.3,9.8
			L680.3,861.9z"/>
		<path class="st0" d="M845.1,861.9h-19.2l0.2-18.1c-2.5-4.6-6-8.6-10.2-11.7L758,797.2h28.3l46,29.4c3.3,2.7,6.1,6,8.3,9.8
			L845.1,861.9z"/>
		<circle class="st16" cx="690.4" cy="861.9" r="15.2"/>
		<circle class="st16" cx="835.9" cy="861.9" r="15.2"/>
		<rect x="752.9" y="797.2" class="st0" width="19.1" height="63"/>
		<circle class="st16" cx="762.9" cy="861.9" r="15.2"/>
	</g>
	<path class="st17" d="M579,552.1H378.5c-4.4,0-8.2-3-9.2-7.3l-26-113.9c-1.3-5.9,3.1-11.5,9.2-11.5H553c4.4,0,8.2,3,9.2,7.3
		l26,113.9C589.5,546.5,585,552.1,579,552.1z"/>
	<path class="st18" d="M620.3,576.3H571v-17.1h63.4v3C634.4,570,628.1,576.3,620.3,576.3z"/>
	<path class="st0" d="M586.2,576.3H385.9c-8.2,0-14.9-6.7-14.9-14.9v-2.2h230.6v1.7C601.6,569.4,594.7,576.3,586.2,576.3z"/>
	<polygon class="st18" points="579.9,559.3 386,559.3 383.2,552.1 577.2,552.1 	"/>
	<circle class="st19" cx="464.7" cy="490.4" r="22.6"/>
	<g>
		<polygon class="st17" points="1029.4,576.7 941.1,576.7 958.9,499.7 1047.2,499.7 		"/>
		<polygon class="st18" points="1047.2,497 1064.2,574 1029.4,574 		"/>
		<polygon class="st20" points="1042.2,521 953.9,521 958.9,499.7 1047.2,499.7 		"/>
		<g>
			<path class="st16" d="M975.7,537.1h-0.1l-6.7,3l-0.2-5.9l9.5-4.1h6.1l-6.4,34.1h-7.3L975.7,537.1z"/>
			<path class="st16" d="M987,564.2l0.9-4.9l7.3-5.7c6.8-5.6,11.2-9.6,11.2-13.7c0-2.4-1.7-4.1-4.7-4.1c-3,0-5.4,0.9-7.2,2l-1.5-5.4
				c2.7-1.7,6.7-2.9,10.6-2.9c6.9,0,10.7,4,10.7,9.3c0,7-5.6,11.8-11.6,16.4l-3.4,2.4v0.1h12.2l-1.2,6.5H987z"/>
		</g>
	</g>
	<g>
		<path class="st20" d="M1113.8,576.2h39.8c1.8,0,3.3-1.5,3.3-3.3v-64.1h-46.3V573C1110.6,574.8,1112,576.2,1113.8,576.2z"/>
		<path class="st21" d="M1118.2,508.9V573c0,1.8,1.5,3.3,3.3,3.3h-7.6c-1.8,0-3.3-1.5-3.3-3.3v-64.1H1118.2z"/>
		<g>
			<defs>
				<path id="SVGID_1_" d="M1110.9,491.2h45.7c1.9,0,3.5,1.6,3.5,3.5v10.8c0,1.9-1.6,3.5-3.5,3.5h-45.7c-1.9,0-3.5-1.6-3.5-3.5
					v-10.8C1107.4,492.7,1109,491.2,1110.9,491.2z"/>
			</defs>
			<use xlink:href="#SVGID_1_"  style="overflow:visible;fill:#FFFFFF;"/>
			<clipPath id="SVGID_2_">
				<use xlink:href="#SVGID_1_"  style="overflow:visible;"/>
			</clipPath>
			<line class="st22" x1="1161" y1="493.9" x2="1161" y2="512.5"/>
			<line class="st22" x1="1156" y1="493.9" x2="1156" y2="512.5"/>
			<line class="st22" x1="1151.1" y1="493.9" x2="1151.1" y2="512.5"/>
			<line class="st22" x1="1146.1" y1="493.9" x2="1146.1" y2="512.5"/>
			<line class="st22" x1="1141.2" y1="493.9" x2="1141.2" y2="512.5"/>
			<line class="st22" x1="1136.2" y1="493.9" x2="1136.2" y2="512.5"/>
			<line class="st22" x1="1131.2" y1="493.9" x2="1131.2" y2="512.5"/>
			<line class="st22" x1="1126.3" y1="493.9" x2="1126.3" y2="512.5"/>
			<line class="st22" x1="1121.3" y1="493.9" x2="1121.3" y2="512.5"/>
			<line class="st22" x1="1116.4" y1="493.9" x2="1116.4" y2="512.5"/>
			<line class="st22" x1="1111.4" y1="493.9" x2="1111.4" y2="512.5"/>
			<line class="st22" x1="1106.5" y1="493.9" x2="1106.5" y2="512.5"/>
		</g>
		<path class="st19" d="M1128.9,560.8h28v-41h-28c-1.7,0-3.1,1.4-3.1,3.1v34.8C1125.8,559.4,1127.2,560.8,1128.9,560.8z"/>
		<line class="st23" x1="1156.9" y1="528.3" x2="1133.7" y2="528.3"/>
		<line class="st23" x1="1156.9" y1="536.5" x2="1133.7" y2="536.5"/>
		<line class="st23" x1="1156.9" y1="544.7" x2="1133.7" y2="544.7"/>
		<line class="st23" x1="1156.9" y1="552.9" x2="1133.7" y2="552.9"/>
	</g>
	<g>
		<rect x="1067.1" y="515.9" class="st4" width="43.8" height="54.3"/>
		<path class="st24" d="M1102.4,494.7l0-4.3h-27.6v4.3c0,0-16,9.6-16,22.9c0,13.3,0,53.7,0,53.7c0,2.7,2.2,4.9,4.9,4.9h49.9
			c2.7,0,4.9-2.2,4.9-4.9c0,0,0-41.3,0-53.7S1102.4,494.7,1102.4,494.7z"/>
		<path class="st25" d="M1102.4,494.7l0-4.3h-10l0,4.3c0,0,16,10.6,16,22.9s0,53.7,0,53.7c0,2.7-2.2,4.9-4.9,4.9h10
			c2.7,0,4.9-2.2,4.9-4.9c0,0,0-41.3,0-53.7S1102.4,494.7,1102.4,494.7z"/>
		<path class="st26" d="M1080.3,490.4L1080.3,490.4c0,2.6-1.2,5-3.2,6.5c-4.7,3.6-12.8,11.2-12.8,20.7v53.7c0,2.7,2.2,4.9,4.9,4.9
			h12.8c-2.7,0-4.9-2.2-4.9-4.9c0,0,0-40.3,0-53.7c0-9.5,8.1-17.1,12.8-20.7c2-1.6,3.2-4,3.2-6.5l0,0H1080.3z"/>
		<rect x="1058.7" y="526.6" class="st17" width="59.7" height="33.5"/>
		<path class="st20" d="M1110.8,554.5h-44.4c-1.1,0-2-0.9-2-2v-18.4c0-1.1,0.9-2,2-2h44.4c1.1,0,2,0.9,2,2v18.4
			C1112.8,553.6,1111.9,554.5,1110.8,554.5z"/>
		<g>
			<defs>
				<path id="SVGID_3_" d="M1103,490.4h-28.8c-2.2,0-4-1.8-4-4v-10.6c0-2.2,1.8-4,4-4h28.8c2.2,0,4,1.8,4,4v10.6
					C1106.9,488.6,1105.2,490.4,1103,490.4z"/>
			</defs>
			<use xlink:href="#SVGID_3_"  style="overflow:visible;fill:#FFFFFF;"/>
			<clipPath id="SVGID_4_">
				<use xlink:href="#SVGID_3_"  style="overflow:visible;"/>
			</clipPath>
			<line class="st27" x1="1071.2" y1="473.9" x2="1071.2" y2="492.4"/>
			<line class="st27" x1="1076.2" y1="473.9" x2="1076.2" y2="492.4"/>
			<line class="st27" x1="1081.1" y1="473.9" x2="1081.1" y2="492.4"/>
			<line class="st27" x1="1086.1" y1="473.9" x2="1086.1" y2="492.4"/>
			<line class="st27" x1="1091" y1="473.9" x2="1091" y2="492.4"/>
			<line class="st27" x1="1096" y1="473.9" x2="1096" y2="492.4"/>
			<line class="st27" x1="1101" y1="473.9" x2="1101" y2="492.4"/>
			<line class="st27" x1="1105.9" y1="473.9" x2="1105.9" y2="492.4"/>
		</g>
		<rect x="1074.7" y="490.4" class="st4" width="27.6" height="2.7"/>
	</g>
	<g>
		<path class="st3" d="M812.6,617.4l-110.8-13.7L689,632.3c-3.3,10.8,2.7,22.4,13.6,25.7l98.4,7.7l41.7,156.1h26.5l-20-158.9
			c-1.6-22.7,1.1-34.8-25.9-43.4L812.6,617.4z"/>
		<path class="st3" d="M753.8,619.9l-74.3-16.2l-5.1,28.6c-0.9,14.1,22.6,32.9,33.4,36.3l38.4-0.3l26.3,153.6H799l-4.5-156.3
			c-1.6-22.7,1.1-34.8-25.9-43.4L753.8,619.9z"/>
		<path class="st17" d="M664.2,404.9c0,0,12-8.1,40.4-8.7c18.1-0.3-20.5,27.7-20.5,27.7L664.2,404.9z"/>
		<path class="st17" d="M795.7,396.2c0,0,45.8-2.9,53.3,13c7.1,15.1-16.6,23.1-16.6,23.1L795.7,396.2z"/>
		<path class="st17" d="M841.6,605.2h-172l24.5-66.9l-15.9-110.3c0-17.5,10.8-31.7,24.2-31.7h103.5c13.4,0,24.2,14.2,24.2,31.7
			L816,534.3L841.6,605.2z"/>
		<polygon class="st3" points="738.4,396.2 743.1,439.7 786.3,439.7 789.6,396.2 		"/>
		<path class="st28" d="M743.1,430.2c0,0,12.9,9.5,27.8,9.5s17.7-9.5,17.7-9.5L777.1,494L743.1,430.2z"/>
		<polygon class="st19" points="789.6,396.2 777.1,494 808.5,430.7 800.4,423 810.7,412.3 		"/>
		<polygon class="st19" points="738.4,396.2 777.1,494 719.4,430.7 727.5,423 717.3,412.3 		"/>
		<path class="st17" d="M739.8,487.5H720c-3.7,0-6.7-3-6.7-6.7v-4.3h33.3v4.3C746.6,484.4,743.5,487.5,739.8,487.5z"/>
		<path class="st3" d="M869.5,821.5l12.2,55.1c0,0-1.2,18.3-15.5,18.3s-17.1-13.9-19.5-26.3c-2.4-12.3-3-47.1-3-47.1H869.5z"/>
		<path class="st29" d="M838.1,834.4c0.2,1.5-3.9,43.4-1.6,43.4c3.6,0,7.3,0,7.3,0s-4.3-38.6-2.8-43.4
			C842.4,829.6,838.1,834.4,838.1,834.4z"/>
		<path class="st30" d="M879.2,865.1c-4.8-3.3-7-3.1-14.2-1.8c-7.2,1.3-12.7,5.3-16.5,7.7s-1.8-13.9-2.2-27.5
			c-0.4-13.5-2.6-22-2.6-22l-1.3-4.7c0,0-6,3.3-4.9,13.2c1.2,10,4,37.6,3.6,49.4c-0.4,11.9,17.1,17.8,32.2,18.2
			c15.1,0.4,14.4-3.9,13.6-11.7C886.2,878.6,884,868.4,879.2,865.1z"/>
		<path class="st3" d="M799.2,821.5l12.2,55.1c0,0-1.2,18.3-15.5,18.3c-14.3,0-17.1-13.9-19.5-26.3s-3-47.1-3-47.1H799.2z"/>
		<path class="st29" d="M767.7,834.4c0.2,1.5-3.9,43.4-1.6,43.4c3.6,0,7.3,0,7.3,0s-4.3-38.6-2.8-43.4S767.7,834.4,767.7,834.4z"/>
		<path class="st30" d="M808.8,865.1c-4.8-3.3-7-3.1-14.2-1.8s-12.7,5.3-16.5,7.7s-1.8-13.9-2.2-27.5c-0.4-13.5-2.6-22-2.6-22
			l-1.7-4.7c0,0-5.7,3.3-4.5,13.2c1.2,10,4,37.6,3.6,49.4c-0.4,11.9,17.1,17.8,32.2,18.2c15.1,0.4,14.4-3.9,13.6-11.7
			C815.8,878.6,813.6,868.4,808.8,865.1z"/>
		<path class="st17" d="M857,556.1L857,556.1c-10.1,1.5-19.5-5.4-21-15.4l-18.5-120.7c-1.5-10.1-2.4-23.6,8.1-22.4
			c22.6,2.5,26.3,12.4,29.5,27.1L872.4,535C874,545.1,867,554.5,857,556.1z"/>
		<path class="st3" d="M939.4,501.7L939.4,501.7c-2,1.9-5.2,1.9-7.2-0.2l-16.1-16.8c-1.9-2-1.9-5.2,0.2-7.2l0,0
			c2-1.9,5.2-1.9,7.2,0.2l16.1,16.8C941.5,496.6,941.4,499.8,939.4,501.7z"/>
		<g>
			<path class="st31" d="M803,499.2l10.5,1.2c6.8-0.4,11-11.4,10.3-26.7l-2-30.8c-0.1-10.9-6.5-19.8-15.1-20.8l-0.5-0.1
				c-8.6-1-16.8,6.2-19.4,16.9l-9.4,31.2c-5.7,15.8,0.6,26.2,5.6,26.7l8.8,1"/>
			<path class="st32" d="M823,461.8l-1.2-18.6c-1.1-11.7-6.5-19.6-15.1-20.6l-0.5-0.1c-8.6-1-15.5,6.4-19.3,16.7l-5.4,17.9"/>
			<path d="M789.7,494.1l-2.8-0.3c-2-0.2-3.8,1.2-4,3.2l-0.1,0.5c-0.2,2,1.2,3.8,3.2,4l2.8,0.3c2,0.2,3.8-1.2,4-3.2l0.1-0.5
				C793.1,496.2,791.7,494.4,789.7,494.1z"/>
			<path d="M808.2,496.2l-2.8-0.3c-2-0.2-3.8,1.2-4,3.2l-0.1,0.5c-0.2,2,1.2,3.8,3.2,4l2.8,0.3c2,0.2,3.8-1.2,4-3.2l0.1-0.5
				C811.7,498.3,810.2,496.5,808.2,496.2z"/>
			<path class="st33" d="M788.3,392.7L788.3,392.7c7.6-1.2,15.5,10.5,17.4,21.4l0.4,2.9l0.8,5.5"/>
			<path class="st33" d="M739.9,394.9L739.9,394.9c-7.7-2-24.3,12.7-22.6,41.2c1.3,22.2,6.3,36.3,6.3,36.3"/>

				<ellipse transform="matrix(0.2499 -0.9683 0.9683 0.2499 83.0007 1060.876)" class="st19" cx="726.2" cy="476.9" rx="12.9" ry="12.9"/>
			<ellipse transform="matrix(0.2499 -0.9683 0.9683 0.2499 83.0007 1060.876)" cx="726.2" cy="476.9" rx="8.1" ry="8.1"/>

				<ellipse transform="matrix(0.2499 -0.9683 0.9683 0.2499 83.0007 1060.876)" class="st18" cx="726.2" cy="476.9" rx="5.1" ry="5.1"/>
		</g>
		<path class="st17" d="M867.6,697l-7.1-62h-0.1c-0.9-14-8.3-30.5-34.3-30.5c-9,0-15,0.5-15,0.5H669.6c0,0-4.4,71.5,53.3,71.5
			c13.5,0.5,18.2,20.5,18.2,20.5H867.6z"/>
		<path class="st17" d="M838.9,543.4L838.9,543.4c-3.5-9.6,1.3-20.2,10.9-23.7l53.6-23.4l12.8,34.6l-53.6,23.4
			C853,557.9,842.4,553,838.9,543.4z"/>
		<polygon class="st28" points="801.7,700 803.7,656.7 823,700 		"/>
		<polygon class="st28" points="868.6,723.5 742.2,723.5 741,697.9 867.6,697.9 		"/>
	</g>
	<path class="st34" d="M883.7,562.2l-89.7-2.1c-4.9,0.2-8-5.3-5.3-9.5l66.7-101.2c1.1-1.7,2.9-2.7,4.9-2.7l92.3,2
		c4.9-0.2,8,5.3,5.3,9.5l-65.3,99C890.7,560.2,887.3,562,883.7,562.2z"/>
	<path class="st35" d="M1187.5,611.6h-824c-4,0-7.3-3.3-7.3-7.3v-20.7c0-4,3.3-7.3,7.3-7.3h824c4,0,7.3,3.3,7.3,7.3v20.7
		C1194.7,608.3,1191.5,611.6,1187.5,611.6z"/>
	<path class="st35" d="M493.3,607h-70.6H399v290c0,2.7,0.1,4,2.8,4h15.6c2.7,0,6.5-1.3,6.5-4V680h67v217c0,2.7,4.6,4,7.3,4h15.6
		c2.7,0,5.1-1.3,5.1-4V607H493.3z"/>
	<rect x="396.9" y="611.3" class="st36" width="121.9" height="16.7"/>
	<path class="st36" d="M1111.8,607h-71.1H1016v290c0,2.7,1.6,4,4.3,4h15.6c2.7,0,8.1-1.3,8.1-4V680h69v217c0,2.7,1,4,3.8,4h15.6
		c2.7,0,6.6-1.3,6.6-4V607H1111.8z"/>
	<rect x="1015.4" y="611.3" class="st37" width="121.9" height="16.7"/>
	<g>
		<path class="st3" d="M918,532.2l-8.1-1.2c-3.5-0.5-5.9-3.8-5.4-7.3l14.4-26.1c0.5-3.5,3.8-5.9,7.3-5.4l8.1,1.2
			c3.7,0.5,6.3,4,5.7,7.7l-14.3,25.3C923.8,530.3,921.7,532.7,918,532.2z"/>
		<path class="st3" d="M934.2,498.5L934.2,498.5c-0.4,2.8-3,4.7-5.7,4.3l-23-3.4c-2.8-0.4-4.7-3-4.3-5.7v0c0.4-2.8,3-4.7,5.7-4.3
			l23,3.4C932.7,493.2,934.6,495.8,934.2,498.5z"/>
		<path class="st3" d="M928.2,507.9L928.2,507.9c-0.4,2.8-3,4.7-5.7,4.3l-23-3.4c-2.8-0.4-4.7-3-4.3-5.7l0,0c0.4-2.8,3-4.7,5.7-4.3
			l23,3.4C926.7,502.5,928.6,505.1,928.2,507.9z"/>
		<path class="st3" d="M929.2,518.3L929.2,518.3c-0.4,2.8-3,4.7-5.7,4.3l-23-3.4c-2.8-0.4-4.7-3-4.3-5.7l0,0c0.4-2.8,3-4.7,5.7-4.3
			l23,3.4C927.7,512.9,929.7,515.5,929.2,518.3z"/>
		<path class="st3" d="M924.1,527.9L924.1,527.9c-0.4,2.8-3,4.7-5.7,4.3l-15.7-2.4c-2.8-0.4-4.7-3-4.3-5.7l0,0
			c0.4-2.8,3-4.7,5.7-4.3l15.7,2.4C922.6,522.5,924.5,525.1,924.1,527.9z"/>
	</g>
	<path class="st17" d="M610.3,541.2L610.3,541.2c-9-4.9-12.3-16.1-7.4-25l58.2-107.3c4.9-9,16.1-12.3,25-7.4l0,0
		c9,4.9,12.3,16.1,7.4,25l-58.2,107.3C630.5,542.7,619.3,546.1,610.3,541.2z"/>
	<g>
		<path class="st9" d="M776.7,509.5c0,0,9-2.2,12.2,3.1c3.3,5.3-3.9,8.6-3.9,8.6L776.7,509.5z"/>
		<g>
			<path class="st16" d="M795.2,528c0,0-8.9-8.9-15.3-12s-10.4,5.6-4.3,8.6c6,3,18.8,5,18.8,5C795.7,529.9,796.2,528.8,795.2,528z"
				/>
			<path class="st0" d="M708.4,485.6L708.4,485.6c0.6-1.2,0.1-2.6-1.1-3.2l-7-3.5c-1.2-0.6-2.6-0.1-3.2,1.1l0,0
				c-0.6,1.2-0.1,2.6,1.1,3.2l7,3.5C706.4,487.2,707.8,486.7,708.4,485.6z"/>

				<rect x="735.6" y="459.9" transform="matrix(-0.4471 0.8945 -0.8945 -0.4471 1520.1958 63.5514)" class="st16" width="9.7" height="83.4"/>
			<polyline class="st38" points="712.1,482 706.4,493.4 736.4,508.4 			"/>
			<path class="st16" d="M794.3,527.1c0.6,0.5,0.9,0.9,0.9,0.9c1.1,0.8,0.5,1.9-0.8,1.6c0,0-0.5-0.1-1.2-0.2L794.3,527.1z"/>
		</g>
		<path class="st3" d="M743.2,504.2c0,0,12.5-5.2,20.7,0c8.1,5.1,12.3,7.9,12.3,7.9l-1.4,5.3h0c1.7,1.4,1.9,3.9,0.5,5.6l-0.1,0.1
			c-1.4,1.7-3.9,1.9-5.6,0.4l-0.1-0.1l0,0c0.7,2.2-0.2,4.6-2.2,5.7l-0.6,0.3c-1.9,1.1-4.2,0.6-5.6-1.1l0,0l0,0
			c1,0.9,1.8,5.2-3.1,6.2c-2.3,0.4-5,1.1-9.7,1.1l0,0l-11.1-1.5L743.2,504.2z"/>
		<path class="st3" d="M722.7,514.5c6.8-2.6,16.1-12.1,18-14.7c1.8-2.6,5.9-2.4,11.2-2.4c5.9,0,10.4-0.3,13.8,1.4
			c4.9,2.4,17.6,14.8,19.3,16.4c4,3.7-1.8,8.7-7.1,5.6c-4.6-2.7-15.8-13.2-15.8-13.2l-10.6-0.1c0,0-7.8,9.5-5.2,13
			c2.5,3.5,3.6,3.1,3.6,3.1l3.4,8.9c0,0-11.5,5.2-18.7,5.8c-8.5,0.7-23.6,5.8-23.6,5.8v-22.7C711,521.4,717.5,516.5,722.7,514.5z"/>
	</g>
	<path class="st17" d="M602.6,523.8L602.6,523.8c0.6-10.2,9.4-17.9,19.5-17.3l103.6,6.3l-2.2,36.8l-103.6-6.3
		C609.7,542.7,602,534,602.6,523.8z"/>
	<circle class="st39" cx="698.7" cy="342.7" r="32.3"/>
	<path class="st39" d="M670.3,270.8c-3,27.8,6.6,56.6,38.5,81.1c36.4,27.9,89.9,1,111.4-19.8c21.5-20.8,44.1-79.2,16.5-121
		l-148.9,3.4C687.9,214.5,674.3,234.4,670.3,270.8z"/>
	<path class="st3" d="M788.6,390.8c0,13.4-10.9,24.4-24.2,24.4h0h-0.2c-13.4,0-24.5-11.1-24.5-24.4v-24.6h49V390.8z"/>
	<path class="st9" d="M739.6,385.5c8.4,4.3,16.6,8.2,23.9,8.2c7.6,0,16.4-1.4,25.1-5.8v-16h-49V385.5z"/>
	<path class="st3" d="M765.9,384.1c-28,0-64-40-64-67v-91.8H837v91.8C837,345.5,812.6,384.1,765.9,384.1z"/>
	<circle class="st3" cx="699.2" cy="304.7" r="17.7"/>
	<path class="st10" d="M695.6,307.2c0-3.5,2.8-6.3,6.3-6.3c1,0,1.9,0.2,2.7,0.6c-1.1-1.8-3.1-3.1-5.4-3.1c-3.5,0-6.3,2.8-6.3,6.3
		c0,2.5,1.5,4.7,3.6,5.7C695.9,309.5,695.6,308.4,695.6,307.2z"/>
	<path class="st39" d="M809.6,241.6c0,0-30.3,17.7-55.3,22.9c-26.7,5.6-50.7,1.2-50.7,1.2s-35.3-21.6-12.9-55
		c34.3-51.2,118.9-32.8,140.3-8.2c22.4,25.9,8.8,68,8.8,68s-5.4-0.5-13.9-10.1C815.5,248.8,809.6,241.6,809.6,241.6z"/>
	<path class="st40" d="M765.9,310.4h-30.5c-4.6,0-8.3-3.7-8.3-8.3v-13.5c0-4.6,3.7-8.3,8.3-8.3h30.5c4.6,0,8.3,3.7,8.3,8.3v13.5
		C774.3,306.7,770.5,310.4,765.9,310.4z"/>
	<path class="st40" d="M827.6,310.4H797c-4.6,0-8.3-3.7-8.3-8.3v-13.5c0-4.6,3.7-8.3,8.3-8.3h30.5c4.6,0,8.3,3.7,8.3,8.3v13.5
		C835.9,306.7,832.2,310.4,827.6,310.4z"/>
	<path class="st40" d="M774.3,295.3c0,0.4,3-3.2,7.5-3.2s7,3.4,7,3.4"/>
	<line class="st41" x1="699.2" y1="287" x2="727" y2="295.5"/>
	<path class="st15" d="M768.2,339.8c0,9,7.3,15.3,16.3,15.3l0,0c9,0,16.3-6.3,16.3-15.3"/>
	<path class="st10" d="M780.5,326.6c0,0.6,0.7,1.1,1.4,1.1h7.9c2.2,0,3.3-2.5,2-4.2l-9.2-11c-0.7-0.8-2.1-0.3-2.1,0.7"/>
	<ellipse class="st16" cx="755.4" cy="295.5" rx="4.7" ry="8.3"/>
	<ellipse class="st16" cx="814.7" cy="295.5" rx="4.7" ry="8.3"/>
</g>
</svg>
