<?xml version="1.0" encoding="utf-8"?>
<!-- Generator: Adobe Illustrator 19.2.0, SVG Export Plug-In . SVG Version: 6.00 Build 0)  -->
<svg version="1.1" id="Layer_1" xmlns="http://www.w3.org/2000/svg" xmlns:xlink="http://www.w3.org/1999/xlink" x="0px" y="0px"
	 viewBox="0 0 1920 1081" style="enable-background:new 0 0 1920 1081;" xml:space="preserve">
<style type="text/css">
	.st0{fill:#CCCCCC;}
	.st1{fill:#E6E6E6;}
	.st2{fill:#00A99D;}
	.st3{fill:#0B8274;}
	.st4{fill:#069385;}
	.st5{fill:#F8C09D;}
	.st6{fill:#F6AE8D;}
	.st7{fill:none;stroke:#EF937E;stroke-width:5;stroke-linecap:round;stroke-miterlimit:10;}
	.st8{fill:#EF937E;}
	.st9{fill:#333333;}
	.st10{fill:#995C29;}
	.st11{fill:#F2F2F2;}
	.st12{fill:#B3B3B3;}
	.st13{fill:#A8D3E2;}
	.st14{fill:none;stroke:#EF937E;stroke-width:2;stroke-linecap:round;stroke-miterlimit:10;}
	.st15{fill:none;stroke:#E6E6E6;stroke-width:8;stroke-miterlimit:10;}
	.st16{fill:none;stroke:#808080;stroke-width:3;stroke-miterlimit:10;}
	.st17{fill:none;stroke:#CCCCCC;stroke-width:18;stroke-miterlimit:10;}
	.st18{fill:none;stroke:#808080;stroke-width:3;stroke-linecap:round;stroke-miterlimit:10;}
	.st19{fill:#E26C60;}
</style>
<g>
	<path class="st0" d="M870.1,936.7c0,0-6.9,5.7-6.7,21.6s2.3,21.8,2.3,21.8l75-0.4c5,0,9-4,9.1-8.9c0.3-10-3.6-24.5-29-21.4
		c-28.8,3.5-30.3-12.8-30.3-12.8L870.1,936.7z"/>
	<path class="st1" d="M805.8,936.8c0,0-6.9,5.7-6.7,21.6c0.2,15.9,2.3,21.8,2.3,21.8l75-0.4c5,0,9-4,9.1-8.9
		c0.3-10-3.6-24.5-29-21.4c-28.8,3.5-30.3-12.8-30.3-12.8L805.8,936.8z"/>
	<path class="st2" d="M981,443.6L981,443.6c1.6,10.1,11.1,16.9,21.1,15.3l102.5-16.6c10.1-1.6,16.9-11.1,15.3-21.1l0,0
		c-1.6-10.1-11.1-16.9-21.1-15.3l-102.5,16.6C986.2,424.1,979.3,433.6,981,443.6z"/>
	<path class="st3" d="M848.6,674.3h-1.3c-41.6,0-75.4-34.2-75.4-75.8v-0.2h152v0.2C923.9,640.1,890.2,674.3,848.6,674.3z"/>
	<path class="st2" d="M880.7,375.6L880.7,375.6c-5,8.9-1.7,20.2,7.3,25.1L989,456c8.9,4.9,20.1,1.7,25.1-7.2v0
		c4.9-8.9,1.7-20.1-7.2-25.1l-101.2-55.3C896.8,363.5,885.7,366.8,880.7,375.6z"/>
	<rect x="790.9" y="598.3" class="st3" width="49.6" height="342"/>

		<rect x="854.4" y="598.3" transform="matrix(-1 -1.224647e-16 1.224647e-16 -1 1758.3621 1538.5444)" class="st3" width="49.6" height="342"/>
	<path class="st2" d="M819.1,357.7h57.7c26,0,47.2,21.1,47.2,47.2v218c0,0-21,20.5-75.3,20.5s-76.7-20.5-76.7-20.5v-218
		C771.9,378.8,793.1,357.7,819.1,357.7z"/>
	<path class="st4" d="M814,573.4V531h-42v62.9c2,0.7,4.2,1.1,6.4,1.1h14C804.3,595,814,585.3,814,573.4z"/>
	<path class="st3" d="M847.7,417.7l40.5-58.4c-3.7-0.9-7.5-1.2-11.4-1.2h-57.7c-4.4,0-8.6,0.5-12.6,1.6L847.7,417.7z"/>
	<polygon class="st5" points="871.7,357.7 847.5,392 822.7,357.7 822.7,328.5 871.7,328.5 	"/>
	<path class="st6" d="M822.7,344.5c9.5,4.1,19.4,6.3,28.9,6.3c6.6,0,13.4-1.1,20.1-3.1v-15.5h-49V344.5z"/>
	<path class="st4" d="M924,531h-42v42.4c0,11.9,10.1,21.6,21.9,21.6h14c2.1,0,4.1-0.4,6.1-1V531z"/>
	<path class="st5" d="M846.6,339.8c-31.9,0-70.4-27.9-70.4-67.1v-47.2c0-39,31.6-70.6,70.6-70.6h0c39,0,70.6,31.6,70.6,70.6v47.2
		C917.4,311.9,895.2,339.8,846.6,339.8z"/>
	<path class="st7" d="M854.4,280.5c0,12.5,10.1,22.6,22.6,22.6h0c12.5,0,22.6-10.1,22.6-22.6"/>
	<path class="st8" d="M876.9,251.7v14.5c0,0.7,0.8,1.2,1.5,1.2h8.6c2.3,0,3.6-2.7,2.1-4.5l-9.9-11.9
		C878.5,250.1,876.9,250.6,876.9,251.7z"/>
	<ellipse class="st9" cx="845.8" cy="243.4" rx="4.6" ry="8.1"/>
	<ellipse class="st9" cx="904" cy="243.4" rx="4.6" ry="8.1"/>
	<path class="st2" d="M913,463.5l97.5-88.5l-24.8-27.3l-97.4,88.5c-7.5,6.9-8.1,18.5-1.3,26.1l0,0
		C893.8,469.8,905.5,470.3,913,463.5z"/>
	<path class="st10" d="M786.9,223.8c0,0,17.4-0.8,24.8-22.9c0,0,7.1,7.6,35.5,10.6c29.7,3.1,37.8-3.1,52.5,0.3
		c10.2,2.3,17.7,12,17.7,12s9.9-12.8,11.3-26.3c2.1-20.7-7.6-46.6-38.9-59.8c-51.8-21.8-81,21.5-81,21.5s-30-7.7-48.6,22.8
		c-14.5,23.8,2.1,48.6,2.1,48.6L786.9,223.8z"/>
	<circle class="st5" cx="775.9" cy="240.9" r="20.1"/>
	<path class="st8" d="M771.9,243.8c0-3.9,3.2-7.1,7.1-7.1c1.1,0,2.1,0.2,3,0.7c-1.2-2.1-3.5-3.5-6.1-3.5c-3.9,0-7.1,3.2-7.1,7.1
		c0,2.8,1.7,5.3,4.1,6.4C772.2,246.3,771.9,245.1,771.9,243.8z"/>
	<path class="st2" d="M909.7,476.6L909.7,476.6c5.7-8.4,3.6-19.9-4.8-25.6l-99.7-69.9c-8.4-5.7-19.9-3.6-25.6,4.8l0,0
		c-5.7,8.4-3.6,19.9,4.8,25.6l99.7,69.9C892.4,487.2,903.9,485,909.7,476.6z"/>
</g>
<g>
	<path class="st6" d="M1111.8,431l-2.1,11.2l34.9,6.5c3.1,0.6,6-1.5,6.6-4.6l0,0c0.6-3.1-1.5-6-4.6-6.6L1111.8,431z"/>
	<path class="st6" d="M1114,419.4l-1.7,11.2l42.4,6.4c3.1,0.5,6-1.7,6.5-4.8l0,0c0.5-3.1-1.7-6-4.8-6.5L1114,419.4z"/>
	<path class="st6" d="M1119.7,409.8l-0.5,11.4l42.9,1.8c3.1,0.1,5.8-2.3,5.9-5.4v0c0.1-3.1-2.3-5.8-5.4-5.9L1119.7,409.8z"/>
	<path class="st6" d="M1114.6,401.8l1.6,11.2l42.5-6.2c3.1-0.5,5.3-3.3,4.8-6.4v0c-0.5-3.1-3.3-5.3-6.4-4.8L1114.6,401.8z"/>
	<path class="st6" d="M1106.8,399.6l6.5,9.3l21.2-14.8c2.6-1.8,3.2-5.3,1.4-7.9l0,0c-1.8-2.6-5.3-3.2-7.9-1.4L1106.8,399.6z"/>
	<path class="st6" d="M1113.6,397.3l9.1,0.4c1.7,0.1,2.9,1.5,2.9,3.1l-1.6,39.6c-0.1,1.7-1.5,2.9-3.1,2.9l-9.1-0.4
		c-6.2-0.3-11.1-5.5-10.8-11.8l0.9-23C1102.1,401.9,1107.4,397,1113.6,397.3z"/>
</g>
<path class="st11" d="M1342.8,708.6H551.2v-50.4c0-30.7,24.9-55.6,55.6-55.6h680.4c30.7,0,55.6,24.9,55.6,55.6V708.6z"/>
<path class="st0" d="M1368.7,760.4H525.3c-14.3,0-25.9-11.6-25.9-25.9v-25.9h895.2v25.9C1394.6,748.8,1383,760.4,1368.7,760.4z"/>
<path class="st0" d="M551.2,577.2v183.1h-25.9c-14.3,0-25.9-11.6-25.9-25.9V577.2c0-14.3,11.6-25.9,25.9-25.9h0
	C539.6,551.3,551.2,562.9,551.2,577.2z"/>
<path class="st0" d="M1394.6,466.2v268.3c0,14.3-11.6,25.9-25.9,25.9h-25.9V466.2c0-14.3,11.6-25.9,25.9-25.9h0
	C1383,440.3,1394.6,451.9,1394.6,466.2z"/>
<rect x="551.2" y="760.4" class="st0" width="21.7" height="204.9"/>
<rect x="936.1" y="488.8" transform="matrix(1.639105e-10 1 -1 1.639105e-10 1809.8031 -84.1367)" class="st12" width="21.7" height="748.1"/>
<rect x="1321" y="760.4" class="st0" width="21.7" height="204.9"/>
<circle class="st11" cx="562" cy="965.3" r="43.2"/>
<circle class="st0" cx="562" cy="965.3" r="25.2"/>
<path class="st12" d="M547.7,970.6c0-13.9,11.3-25.2,25.2-25.2c1.8,0,3.5,0.2,5.2,0.5c-4.4-3.6-10-5.8-16.1-5.8
	c-13.9,0-25.2,11.3-25.2,25.2c0,12.1,8.6,22.2,20,24.6C551.3,985.3,547.7,978.4,547.7,970.6z"/>
<circle class="st11" cx="1331.9" cy="965.3" r="43.2"/>
<circle class="st0" cx="1331.9" cy="965.3" r="25.2"/>
<path class="st11" d="M1332.4,484.5L1240.7,608c-21.8,29.4-63.3,35.6-92.7,13.7l-27.2-20.1c-29.4-21.8-35.6-63.3-13.7-92.7
	l91.6-123.5c21.8-29.4,63.3-35.6,92.7-13.7l27.2,20.1C1348,413.6,1354.2,455.1,1332.4,484.5z"/>
<rect x="551.2" y="760.4" class="st12" width="21.7" height="31.5"/>
<rect x="1321" y="760.4" class="st12" width="21.7" height="31.5"/>
<path class="st12" d="M1317.7,970.6c0-13.9,11.3-25.2,25.2-25.2c1.8,0,3.5,0.2,5.2,0.5c-4.4-3.6-10-5.8-16.1-5.8
	c-13.9,0-25.2,11.3-25.2,25.2c0,12.1,8.6,22.2,20,24.6C1321.3,985.3,1317.7,978.4,1317.7,970.6z"/>
<path class="st13" d="M1034.2,474L1034.2,474c-0.2,10.2,7.8,18.6,18,18.9l122.1,2.9c10.2,0.2,18.6-7.8,18.9-18v0
	c0.2-10.2-13.4-17.4-28.3-18.7l-111.7-3.1C1042.9,455.8,1034.4,463.9,1034.2,474z"/>
<path class="st13" d="M1059.4,494.3L1059.4,494.3c9.5-3.6,14.4-14.2,10.8-23.8l-36.6-97.1l-34.5,13l36.6,97.1
	C1039.2,493.1,1049.9,497.9,1059.4,494.3z"/>
<g>
	<path class="st5" d="M1005.2,386.3l-10.3,4.5l-14-32.1c-1.2-2.8,0.1-6.1,2.9-7.4l0,0c2.8-1.2,6.1,0.1,7.4,2.9L1005.2,386.3z"/>
	<path class="st5" d="M1014.9,380.9l-10.3,4.5l-16.9-38.8c-1.2-2.8,0.1-6.1,2.9-7.4v0c2.8-1.2,6.1,0.1,7.4,2.9L1014.9,380.9z"/>
	<path class="st5" d="M1021.9,370.4l-10.3,4.5l-16.9-38.8c-1.2-2.8,0.1-6.1,2.9-7.4l0,0c2.8-1.2,6.1,0.1,7.4,2.9L1021.9,370.4z"/>
	<path class="st5" d="M1033,369.8l-10.3,4.5l-16.9-38.8c-1.2-2.8,0.1-6.1,2.9-7.4l0,0c2.8-1.2,6.1,0.1,7.4,2.9L1033,369.8z"/>
	<path class="st5" d="M1035.9,378.5l-10.9-2.7l6.1-24.8c0.7-3,3.8-4.8,6.8-4.1l0,0c3,0.7,4.8,3.8,4.1,6.8L1035.9,378.5z"/>
	<path class="st5" d="M1035.6,371.5l-3.6-8.2c-0.7-1.5-2.4-2.2-3.9-1.5l-35.8,15.6c-1.5,0.7-2.2,2.4-1.5,3.9l3.6,8.2
		c2.5,5.7,9,8.2,14.7,5.8l20.8-9.1C1035.4,383.7,1038,377.1,1035.6,371.5z"/>
</g>
<path class="st13" d="M1178,540.5c11.4-16.7,20.2-30,27-40.4c13.6-20.7,5.8-48.6-16.6-59.4c-22.9-11-50.8-17.8-69-3.9
	c0,0-28.7,35.9-72.4,59.8s-78.1,30.7-78.1,30.7v75.1c0,0,73.9,0.6,119.4,0.1C1117.4,602.2,1154.4,575.3,1178,540.5z"/>
<path class="st13" d="M1085.4,599.8L1085.4,599.8c7.6,6.8,19.3,6.1,26-1.5l81.3-91.1c6.8-7.6,6.1-19.3-1.5-26l0,0
	c-7.6-6.8-19.3-6.1-26,1.5l-81.3,91.1C1077.1,581.4,1077.8,593,1085.4,599.8z"/>
<path class="st1" d="M968.9,708.6H551.2v-99.4c0-46.4,37.6-83.9,83.9-83.9h333.7V708.6z"/>
<path class="st13" d="M1114.4,589.1L1114.4,589.1c0.6-10.2-7.2-18.9-17.4-19.5l-103.6-6l-2.1,36.8l103.6,6
	C1105.1,607.1,1113.8,599.3,1114.4,589.1z"/>
<path class="st5" d="M991.7,596.2c0,0-9.1-2.8-20,0.1c-10.9,2.9-18.7,7.8-22.2,8.2c-3.5,0.4-7.5-9.7,6.6-12.6
	c8.8-1.8,8.3-1.6,3.8-0.9c-4.5,0.7-9.3,2.5-13.7,7.7c-4.4,5.2-10.8,7.8-12,2.5s3.5-7.7,3.5-7.7s-6.1,1.8-6.8-2.8
	c-0.7-4.5,3.9-9.6,6.8-12c0,0-2.4-4.9,3.6-7.3c6-2.4,15.8-8.1,22.7-9.7c6.9-1.6,29,10.5,29,10.5L991.7,596.2z"/>
<path class="st1" d="M1183.8,317.6c18.2-21.1,39.9-45.1,79.8-37.5c55.2,10.6,59,61.6,59,61.6s20.9,14.8,12.3,48.4
	c-7.3,28.4-23.9,39.8-33.3,47.1c-29,22.8-74.7,27.1-109.3-2.8C1157.7,404.5,1153.9,352.2,1183.8,317.6z"/>
<path class="st6" d="M1154.6,423.7c11.4-8.7,27.8-6.6,36.5,4.9s6.6,27.8-4.9,36.5c-11.4,8.7-54.6-15.5-54.6-15.5
	S1143.2,432.4,1154.6,423.7z"/>
<path class="st5" d="M1166.5,451.5c26.3,13.9,72.7,20.4,103.8-15.6l30.2-35c11.1-12.8,9.7-32.1-3.1-43.2l-57-49.3
	c-12.8-11.1-32.1-9.7-43.2,3.1l-37.6,43.5c-12.4,14.3-23.1,35.5-19.9,58.2C1142.4,431.6,1154.6,445.2,1166.5,451.5z"/>
<ellipse transform="matrix(0.654 -0.7565 0.7565 0.654 125.2354 1116.6643)" class="st5" cx="1283.3" cy="421.4" rx="19.4" ry="19.4"/>
<path class="st8" d="M1284.5,426c2.5-2.9,2.2-7.2-0.7-9.7c-0.8-0.7-1.7-1.2-2.6-1.4c2.2-0.7,4.8-0.3,6.7,1.3
	c2.9,2.5,3.2,6.8,0.7,9.7c-1.8,2.1-4.6,2.8-7.1,2.1C1282.6,427.7,1283.7,427,1284.5,426z"/>
<path class="st1" d="M1202.7,305.4c0,0,23.8-4.3,42.6,12c18.7,16.3,32.8,37.6,32.8,37.6s-8.2,38.2,0.1,47.7
	c11.5,13.2,17.8,4.1,17.8,4.1l31.6-36.1l-99.5-74.6L1202.7,305.4z"/>
<line class="st14" x1="1221.1" y1="319.3" x2="1246.8" y2="341.6"/>
<line class="st14" x1="1210.1" y1="322.9" x2="1244.8" y2="353.1"/>
<path class="st15" d="M1187.7,327c0,0,5,2.3,7.3,4.3c4.9,4.2,6.3,8.7,6.3,8.7"/>
<path class="st15" d="M1225.4,359.8c0,0,5,2.3,7.3,4.3c4.9,4.2,6.3,8.7,6.3,8.7"/>
<path class="st16" d="M1212.9,381.7l8,7c6.3,5.5,15.8,4.8,21.3-1.5v0c5.5-6.3,4.8-15.8-1.5-21.3l-8-7c-6.3-5.5-15.8-4.8-21.3,1.5v0
	C1205.9,366.7,1206.6,376.2,1212.9,381.7z"/>
<path class="st17" d="M937.2,734.5h-343V613.7c0-26.9,21.8-48.8,48.8-48.8h245.4c26.9,0,48.8,21.8,48.8,48.8V734.5z"/>
<line class="st17" x1="644" y1="566" x2="644" y2="714"/>
<line class="st17" x1="693" y1="566" x2="693" y2="714"/>
<line class="st17" x1="888" y1="566" x2="888" y2="714"/>
<line class="st17" x1="742" y1="566" x2="742" y2="714"/>
<line class="st17" x1="791" y1="566" x2="791" y2="714"/>
<line class="st17" x1="839" y1="566" x2="839" y2="714"/>
<path class="st16" d="M1177.6,351l8,7c6.3,5.5,15.8,4.8,21.3-1.5v0c5.5-6.3,4.8-15.8-1.5-21.3l-8-7c-6.3-5.5-15.8-4.8-21.3,1.5v0
	C1170.7,336,1171.4,345.6,1177.6,351z"/>
<line class="st16" x1="1212.7" y1="361.5" x2="1206.7" y2="356.6"/>
<path class="st18" d="M1286.9,411.4c0,0-3-2.6-11.6-10c-8.1-7-32.4-13-32.4-13"/>
<path class="st19" d="M1164,385.2c-3.9,4.5-3,10.7,1.5,14.6h0c4.5,3.9,10.8,3.9,14.7-0.6"/>
<path class="st1" d="M1157.5,376.3c1-1.5,2.8-2.2,4.5-1.6c3.2,1,16,7.4,16,7.4s10.8,13,12.8,16.3c0.9,1.4,0.8,3.2-0.3,4.6l-3.2,4.2
	c-1.6,2.1-4.8,2.1-6.4,0c-3.2-4.1-11.7-15-11.7-15s-9.2-4.4-12.7-5.9c-2.3-1-3.2-3.9-1.8-6L1157.5,376.3z"/>
<path class="st8" d="M1193.3,370.1l-8.7,9.9c-0.4,0.5-1.2,0.3-1.7-0.1l-5.9-5.1c-1.6-1.4-0.9-4,1.2-4.4l13.9-2.3
	C1193.2,368.1,1194,369.4,1193.3,370.1z"/>
<ellipse transform="matrix(0.6565 -0.7543 0.7543 0.6565 150.3353 1011.5159)" class="st9" cx="1185.9" cy="340.7" rx="6.5" ry="3.7"/>
<ellipse transform="matrix(0.6565 -0.7543 0.7543 0.6565 138.4127 1051.6223)" class="st9" cx="1224" cy="373.8" rx="6.5" ry="3.7"/>
<path class="st12" d="M1368.7,760.4H525.3c-14.3,0-25.9-11.6-25.9-25.9v0h895.2v0C1394.6,748.8,1383,760.4,1368.7,760.4z"/>
<path class="st1" d="M1338.9,416.2c-17.2,14.2-60.3,52.5-107.4,115.2c-33.5,44.5-52.3,78.8-62.5,100.7c25.9,7.5,54.8-1.3,71.8-24.2
	l91.6-123.5C1347.5,464,1349.2,437.7,1338.9,416.2z"/>
<g>
	<path class="st6" d="M990.6,382.9l6.5,9.2l28.6-20.2c2.5-1.8,3.1-5.3,1.3-7.8v0c-1.8-2.5-5.3-3.1-7.8-1.3L990.6,382.9z"/>
	<path class="st6" d="M985.2,373.2l6.5,9.2l34.6-24.4c2.5-1.8,3.1-5.3,1.3-7.8l0,0c-1.8-2.5-5.3-3.1-7.8-1.3L985.2,373.2z"/>
	<path class="st6" d="M984.7,360.6l6.5,9.2l34.6-24.4c2.5-1.8,3.1-5.3,1.3-7.8v0c-1.8-2.5-5.3-3.1-7.8-1.3L984.7,360.6z"/>
	<path class="st6" d="M975.5,354.3l6.5,9.2l34.6-24.4c2.5-1.8,3.1-5.3,1.3-7.8l0,0c-1.8-2.5-5.3-3.1-7.8-1.3L975.5,354.3z"/>
	<path class="st6" d="M972.4,354.4l7.3-5.2c1.3-0.9,3.2-0.6,4.1,0.7l22.5,31.9c0.9,1.3,0.6,3.2-0.7,4.1l-7.3,5.2
		c-5,3.6-12,2.3-15.6-2.7L969.7,370C966.2,364.9,967.4,358,972.4,354.4z"/>
</g>
<g>
	<path class="st5" d="M1014.3,341.7L1014.3,341.7c-2.7,1-5.7-0.3-6.7-3l-1.6-4.4c-1-2.7,0.3-5.7,3-6.7h0c2.7-1,5.7,0.3,6.7,3
		l1.6,4.4C1018.3,337.6,1017,340.7,1014.3,341.7z"/>
	<path class="st5" d="M1004.4,345.3L1004.4,345.3c-2.7,1-5.7-0.3-6.7-3l-3.2-8.6c-1-2.7,0.3-5.7,3-6.7l0,0c2.7-1,5.7,0.3,6.7,3
		l3.2,8.6C1008.4,341.2,1007.1,344.2,1004.4,345.3z"/>
	<path class="st5" d="M994.7,349.1L994.7,349.1c-2.7,1-5.7-0.3-6.7-3l-2.9-7.8c-1-2.7,0.3-5.7,3-6.7l0,0c2.7-1,5.7,0.3,6.7,3
		l2.9,7.8C998.8,345.1,997.4,348.1,994.7,349.1z"/>
	<path class="st5" d="M985,352.6L985,352.6c-2.7,1-5.7-0.3-6.7-3l-1-2.5c-1-2.7,0.3-5.7,3-6.7h0c2.7-1,5.7,0.3,6.7,3l1,2.5
		C989,348.6,987.7,351.6,985,352.6z"/>
</g>
<path class="st6" d="M968.5,360.3l10.7,3.4l7.7-24.3c0.9-3-0.7-6.1-3.7-7l0,0c-3-0.9-6.1,0.7-7,3.7L968.5,360.3z"/>
</svg>
