<?xml version="1.0" standalone="no"?>
<!DOCTYPE svg PUBLIC "-//W3C//DTD SVG 20010904//EN"
 "http://www.w3.org/TR/2001/REC-SVG-20010904/DTD/svg10.dtd">
<svg version="1.0" xmlns="http://www.w3.org/2000/svg"
 width="920.000000pt" height="512.000000pt" viewBox="0 0 920.000000 512.000000"
 preserveAspectRatio="xMidYMid meet">

<g transform="translate(0.000000,512.000000) scale(0.100000,-0.100000)"
fill="#000000" stroke="none">
<path d="M4574 4061 c-99 -24 -106 -31 -936 -860 -924 -923 -863 -850 -863
-1026 0 -137 22 -178 165 -319 138 -136 186 -161 315 -161 160 1 123 -29 818
664 l607 606 613 -611 c695 -694 651 -658 812 -658 128 -1 177 24 312 157 140
137 168 192 168 327 0 167 53 104 -839 998 -429 431 -803 799 -829 819 -64 47
-150 73 -240 72 -40 -1 -86 -4 -103 -8z"/>
</g>
</svg>
