<?xml version="1.0" encoding="UTF-8" standalone="no"?><svg xmlns="http://www.w3.org/2000/svg" xmlns:xlink="http://www.w3.org/1999/xlink" contentScriptType="application/ecmascript" contentStyleType="text/css" height="610px" preserveAspectRatio="none" style="width:270px;height:610px;background:#FFFFFF;" version="1.1" viewBox="0 0 270 610" width="270px" zoomAndPan="magnify"><defs><filter height="300%" id="f1ums3n2sukjz8" width="300%" x="-1" y="-1"><feGaussianBlur result="blurOut" stdDeviation="2.0"/><feColorMatrix in="blurOut" result="blurOut2" type="matrix" values="0 0 0 0 0 0 0 0 0 0 0 0 0 0 0 0 0 0 .4 0"/><feOffset dx="4.0" dy="4.0" in="blurOut2" result="blurOut3"/><feBlend in="SourceGraphic" in2="blurOut3" mode="normal"/></filter></defs><g><!--MD5=[3fd616f346a44cd59a91eb10b19e157c]
class User--><rect codeLine="1" fill="#FEFECE" filter="url(#f1ums3n2sukjz8)" height="124.8281" id="User" style="stroke:#A80036;stroke-width:1.5;" width="239" x="7" y="7"/><ellipse cx="107.75" cy="23" fill="#ADD1B2" rx="11" ry="11" style="stroke:#A80036;stroke-width:1.0;"/><path d="M106.5469,23.875 L108,23.875 L108,23.9844 C108,24.3906 108.0313,24.5469 108.1094,24.7031 C108.2656,24.9531 108.5469,25.1094 108.8438,25.1094 C109.0938,25.1094 109.3594,24.9688 109.5156,24.75 C109.6406,24.5938 109.6719,24.4375 109.6719,23.9844 L109.6719,22.0625 C109.6719,21.9063 109.6719,21.8594 109.6563,21.7031 C109.5938,21.2344 109.2813,20.9219 108.8281,20.9219 C108.5781,20.9219 108.3125,21.0625 108.1406,21.2813 C108.0313,21.4531 108,21.6094 108,22.0625 L108,22.1875 L106.5469,22.1875 L106.5469,19.7813 L110.5313,19.7813 L110.5313,20.6406 C110.5313,21.0469 110.5625,21.2188 110.6406,21.375 C110.8125,21.625 111.0938,21.7813 111.375,21.7813 C111.6406,21.7813 111.9063,21.6406 112.0781,21.4219 C112.1875,21.25 112.2188,21.1094 112.2188,20.6406 L112.2188,18.0938 L104.5938,18.0938 C104.1563,18.0938 104.0313,18.1094 103.875,18.2031 C103.625,18.3594 103.4688,18.6563 103.4688,18.9375 C103.4688,19.2188 103.6094,19.4688 103.8281,19.6406 C103.9844,19.75 104.1719,19.7813 104.5938,19.7813 L104.8438,19.7813 L104.8438,26.2969 L104.5938,26.2969 C104.1875,26.2969 104.0313,26.3125 103.875,26.4219 C103.625,26.5938 103.4688,26.8594 103.4688,27.1563 C103.4688,27.4219 103.6094,27.6719 103.8281,27.8281 C103.9688,27.9531 104.2031,28 104.5938,28 L112.5938,28 L112.5938,25.4219 C112.5938,24.9844 112.5625,24.8438 112.4844,24.6875 C112.3125,24.4375 112.0313,24.2813 111.75,24.2813 C111.4844,24.2813 111.2188,24.3906 111.0469,24.6406 C110.9375,24.7969 110.9063,24.9375 110.9063,25.4219 L110.9063,26.2969 L106.5469,26.2969 L106.5469,23.875 Z " fill="#000000"/><text fill="#000000" font-family="sans-serif" font-size="12" lengthAdjust="spacing" textLength="29" x="128.25" y="27.1543">User</text><line style="stroke:#A80036;stroke-width:1.5;" x1="8" x2="245" y1="39" y2="39"/><ellipse cx="18" cy="50" fill="#000000" rx="3" ry="3" style="stroke:#000000;stroke-width:1.0;"/><text fill="#000000" font-family="sans-serif" font-size="11" lengthAdjust="spacing" textLength="34" x="27" y="53.2104">Name</text><ellipse cx="18" cy="62.8047" fill="#000000" rx="3" ry="3" style="stroke:#000000;stroke-width:1.0;"/><text fill="#000000" font-family="sans-serif" font-size="11" lengthAdjust="spacing" textLength="32" x="27" y="66.0151">email</text><ellipse cx="18" cy="75.6094" fill="#000000" rx="3" ry="3" style="stroke:#000000;stroke-width:1.0;"/><text fill="#000000" font-family="sans-serif" font-size="11" lengthAdjust="spacing" textLength="86" x="27" y="78.8198">phone_number</text><ellipse cx="18" cy="88.4141" fill="#000000" rx="3" ry="3" style="stroke:#000000;stroke-width:1.0;"/><text fill="#000000" font-family="sans-serif" font-size="11" lengthAdjust="spacing" textLength="61" x="27" y="91.6245">public_Key</text><line style="stroke:#A80036;stroke-width:1.5;" x1="8" x2="245" y1="98.2188" y2="98.2188"/><ellipse cx="18" cy="109.2188" fill="#000000" rx="3" ry="3" style="stroke:#000000;stroke-width:1.0;"/><text fill="#000000" font-family="sans-serif" font-size="11" lengthAdjust="spacing" textLength="100" x="27" y="112.4292">UiD (Primary Key)</text><ellipse cx="18" cy="122.0234" fill="#000000" rx="3" ry="3" style="stroke:#000000;stroke-width:1.0;"/><text fill="#000000" font-family="sans-serif" font-size="11" lengthAdjust="spacing" textLength="213" x="27" y="125.2339">PassWord(Hash)/ Private Key(Encrypt)</text><!--MD5=[9dd4eaa2771a2ff8dbee15cc1e732cab]
class Patient--><rect codeLine="10" fill="#FEFECE" filter="url(#f1ums3n2sukjz8)" height="86.4141" id="Patient" style="stroke:#A80036;stroke-width:1.5;" width="148" x="47.5" y="351"/><ellipse cx="97.75" cy="367" fill="#ADD1B2" rx="11" ry="11" style="stroke:#A80036;stroke-width:1.0;"/><path d="M96.5469,367.875 L98,367.875 L98,367.9844 C98,368.3906 98.0313,368.5469 98.1094,368.7031 C98.2656,368.9531 98.5469,369.1094 98.8438,369.1094 C99.0938,369.1094 99.3594,368.9688 99.5156,368.75 C99.6406,368.5938 99.6719,368.4375 99.6719,367.9844 L99.6719,366.0625 C99.6719,365.9063 99.6719,365.8594 99.6563,365.7031 C99.5938,365.2344 99.2813,364.9219 98.8281,364.9219 C98.5781,364.9219 98.3125,365.0625 98.1406,365.2813 C98.0313,365.4531 98,365.6094 98,366.0625 L98,366.1875 L96.5469,366.1875 L96.5469,363.7813 L100.5313,363.7813 L100.5313,364.6406 C100.5313,365.0469 100.5625,365.2188 100.6406,365.375 C100.8125,365.625 101.0938,365.7813 101.375,365.7813 C101.6406,365.7813 101.9063,365.6406 102.0781,365.4219 C102.1875,365.25 102.2188,365.1094 102.2188,364.6406 L102.2188,362.0938 L94.5938,362.0938 C94.1563,362.0938 94.0313,362.1094 93.875,362.2031 C93.625,362.3594 93.4688,362.6563 93.4688,362.9375 C93.4688,363.2188 93.6094,363.4688 93.8281,363.6406 C93.9844,363.75 94.1719,363.7813 94.5938,363.7813 L94.8438,363.7813 L94.8438,370.2969 L94.5938,370.2969 C94.1875,370.2969 94.0313,370.3125 93.875,370.4219 C93.625,370.5938 93.4688,370.8594 93.4688,371.1563 C93.4688,371.4219 93.6094,371.6719 93.8281,371.8281 C93.9688,371.9531 94.2031,372 94.5938,372 L102.5938,372 L102.5938,369.4219 C102.5938,368.9844 102.5625,368.8438 102.4844,368.6875 C102.3125,368.4375 102.0313,368.2813 101.75,368.2813 C101.4844,368.2813 101.2188,368.3906 101.0469,368.6406 C100.9375,368.7969 100.9063,368.9375 100.9063,369.4219 L100.9063,370.2969 L96.5469,370.2969 L96.5469,367.875 Z " fill="#000000"/><text fill="#000000" font-family="sans-serif" font-size="12" lengthAdjust="spacing" textLength="39" x="118.25" y="371.1543">Patient</text><line style="stroke:#A80036;stroke-width:1.5;" x1="48.5" x2="194.5" y1="383" y2="383"/><ellipse cx="58.5" cy="394" fill="#000000" rx="3" ry="3" style="stroke:#000000;stroke-width:1.0;"/><text fill="#000000" font-family="sans-serif" font-size="11" lengthAdjust="spacing" textLength="34" x="67.5" y="397.2104">Name</text><line style="stroke:#A80036;stroke-width:1.5;" x1="48.5" x2="194.5" y1="403.8047" y2="403.8047"/><ellipse cx="58.5" cy="414.8047" fill="#000000" rx="3" ry="3" style="stroke:#000000;stroke-width:1.0;"/><text fill="#000000" font-family="sans-serif" font-size="11" lengthAdjust="spacing" textLength="114" x="67.5" y="418.0151">PiD (SK -&gt; user.UiD)</text><ellipse cx="58.5" cy="427.6094" fill="#000000" rx="3" ry="3" style="stroke:#000000;stroke-width:1.0;"/><text fill="#000000" font-family="sans-serif" font-size="11" lengthAdjust="spacing" textLength="122" x="67.5" y="430.8198">Medical History(JSON)</text><!--MD5=[5a42d898e2a5d299cc26761d1eaa7d84]
class Doctor--><rect codeLine="16" fill="#FEFECE" filter="url(#f1ums3n2sukjz8)" height="99.2188" id="Doctor" style="stroke:#A80036;stroke-width:1.5;" width="144" x="112.5" y="497"/><ellipse cx="159.75" cy="513" fill="#ADD1B2" rx="11" ry="11" style="stroke:#A80036;stroke-width:1.0;"/><path d="M158.5469,513.875 L160,513.875 L160,513.9844 C160,514.3906 160.0313,514.5469 160.1094,514.7031 C160.2656,514.9531 160.5469,515.1094 160.8438,515.1094 C161.0938,515.1094 161.3594,514.9688 161.5156,514.75 C161.6406,514.5938 161.6719,514.4375 161.6719,513.9844 L161.6719,512.0625 C161.6719,511.9063 161.6719,511.8594 161.6563,511.7031 C161.5938,511.2344 161.2813,510.9219 160.8281,510.9219 C160.5781,510.9219 160.3125,511.0625 160.1406,511.2813 C160.0313,511.4531 160,511.6094 160,512.0625 L160,512.1875 L158.5469,512.1875 L158.5469,509.7813 L162.5313,509.7813 L162.5313,510.6406 C162.5313,511.0469 162.5625,511.2188 162.6406,511.375 C162.8125,511.625 163.0938,511.7813 163.375,511.7813 C163.6406,511.7813 163.9063,511.6406 164.0781,511.4219 C164.1875,511.25 164.2188,511.1094 164.2188,510.6406 L164.2188,508.0938 L156.5938,508.0938 C156.1563,508.0938 156.0313,508.1094 155.875,508.2031 C155.625,508.3594 155.4688,508.6563 155.4688,508.9375 C155.4688,509.2188 155.6094,509.4688 155.8281,509.6406 C155.9844,509.75 156.1719,509.7813 156.5938,509.7813 L156.8438,509.7813 L156.8438,516.2969 L156.5938,516.2969 C156.1875,516.2969 156.0313,516.3125 155.875,516.4219 C155.625,516.5938 155.4688,516.8594 155.4688,517.1563 C155.4688,517.4219 155.6094,517.6719 155.8281,517.8281 C155.9688,517.9531 156.2031,518 156.5938,518 L164.5938,518 L164.5938,515.4219 C164.5938,514.9844 164.5625,514.8438 164.4844,514.6875 C164.3125,514.4375 164.0313,514.2813 163.75,514.2813 C163.4844,514.2813 163.2188,514.3906 163.0469,514.6406 C162.9375,514.7969 162.9063,514.9375 162.9063,515.4219 L162.9063,516.2969 L158.5469,516.2969 L158.5469,513.875 Z " fill="#000000"/><text fill="#000000" font-family="sans-serif" font-size="12" lengthAdjust="spacing" textLength="41" x="180.25" y="517.1543">Doctor</text><line style="stroke:#A80036;stroke-width:1.5;" x1="113.5" x2="255.5" y1="529" y2="529"/><ellipse cx="123.5" cy="540" fill="#000000" rx="3" ry="3" style="stroke:#000000;stroke-width:1.0;"/><text fill="#000000" font-family="sans-serif" font-size="11" lengthAdjust="spacing" textLength="34" x="132.5" y="543.2104">Name</text><ellipse cx="123.5" cy="552.8047" fill="#000000" rx="3" ry="3" style="stroke:#000000;stroke-width:1.0;"/><text fill="#000000" font-family="sans-serif" font-size="11" lengthAdjust="spacing" textLength="44" x="132.5" y="556.0151">Degree</text><line style="stroke:#A80036;stroke-width:1.5;" x1="113.5" x2="255.5" y1="562.6094" y2="562.6094"/><ellipse cx="123.5" cy="573.6094" fill="#000000" rx="3" ry="3" style="stroke:#000000;stroke-width:1.0;"/><text fill="#000000" font-family="sans-serif" font-size="11" lengthAdjust="spacing" textLength="118" x="132.5" y="576.8198">DiD (SK -&gt; User.UiD)</text><ellipse cx="123.5" cy="586.4141" fill="#000000" rx="3" ry="3" style="stroke:#000000;stroke-width:1.0;"/><text fill="#000000" font-family="sans-serif" font-size="11" lengthAdjust="spacing" textLength="118" x="132.5" y="589.6245">Patient History(JSON)</text><!--MD5=[b106bedfc4022a52780c97cc7ba54cdd]
class Chemist--><rect codeLine="23" fill="#FEFECE" filter="url(#f1ums3n2sukjz8)" height="99.2188" id="Chemist" style="stroke:#A80036;stroke-width:1.5;" width="138" x="57.5" y="192"/><ellipse cx="98.6" cy="208" fill="#ADD1B2" rx="11" ry="11" style="stroke:#A80036;stroke-width:1.0;"/><path d="M97.3969,208.875 L98.85,208.875 L98.85,208.9844 C98.85,209.3906 98.8813,209.5469 98.9594,209.7031 C99.1156,209.9531 99.3969,210.1094 99.6938,210.1094 C99.9438,210.1094 100.2094,209.9688 100.3656,209.75 C100.4906,209.5938 100.5219,209.4375 100.5219,208.9844 L100.5219,207.0625 C100.5219,206.9063 100.5219,206.8594 100.5063,206.7031 C100.4438,206.2344 100.1313,205.9219 99.6781,205.9219 C99.4281,205.9219 99.1625,206.0625 98.9906,206.2813 C98.8813,206.4531 98.85,206.6094 98.85,207.0625 L98.85,207.1875 L97.3969,207.1875 L97.3969,204.7813 L101.3813,204.7813 L101.3813,205.6406 C101.3813,206.0469 101.4125,206.2188 101.4906,206.375 C101.6625,206.625 101.9438,206.7813 102.225,206.7813 C102.4906,206.7813 102.7563,206.6406 102.9281,206.4219 C103.0375,206.25 103.0688,206.1094 103.0688,205.6406 L103.0688,203.0938 L95.4438,203.0938 C95.0063,203.0938 94.8813,203.1094 94.725,203.2031 C94.475,203.3594 94.3188,203.6563 94.3188,203.9375 C94.3188,204.2188 94.4594,204.4688 94.6781,204.6406 C94.8344,204.75 95.0219,204.7813 95.4438,204.7813 L95.6938,204.7813 L95.6938,211.2969 L95.4438,211.2969 C95.0375,211.2969 94.8813,211.3125 94.725,211.4219 C94.475,211.5938 94.3188,211.8594 94.3188,212.1563 C94.3188,212.4219 94.4594,212.6719 94.6781,212.8281 C94.8188,212.9531 95.0531,213 95.4438,213 L103.4438,213 L103.4438,210.4219 C103.4438,209.9844 103.4125,209.8438 103.3344,209.6875 C103.1625,209.4375 102.8813,209.2813 102.6,209.2813 C102.3344,209.2813 102.0688,209.3906 101.8969,209.6406 C101.7875,209.7969 101.7563,209.9375 101.7563,210.4219 L101.7563,211.2969 L97.3969,211.2969 L97.3969,208.875 Z " fill="#000000"/><text fill="#000000" font-family="sans-serif" font-size="12" lengthAdjust="spacing" textLength="48" x="118.4" y="212.1543">Chemist</text><line style="stroke:#A80036;stroke-width:1.5;" x1="58.5" x2="194.5" y1="224" y2="224"/><ellipse cx="68.5" cy="235" fill="#000000" rx="3" ry="3" style="stroke:#000000;stroke-width:1.0;"/><text fill="#000000" font-family="sans-serif" font-size="11" lengthAdjust="spacing" textLength="34" x="77.5" y="238.2104">Name</text><ellipse cx="68.5" cy="247.8047" fill="#000000" rx="3" ry="3" style="stroke:#000000;stroke-width:1.0;"/><text fill="#000000" font-family="sans-serif" font-size="11" lengthAdjust="spacing" textLength="47" x="77.5" y="251.0151">Location</text><line style="stroke:#A80036;stroke-width:1.5;" x1="58.5" x2="194.5" y1="257.6094" y2="257.6094"/><ellipse cx="68.5" cy="268.6094" fill="#000000" rx="3" ry="3" style="stroke:#000000;stroke-width:1.0;"/><text fill="#000000" font-family="sans-serif" font-size="11" lengthAdjust="spacing" textLength="112" x="77.5" y="271.8198">CiD(SK -&gt; user.UiD)</text><ellipse cx="68.5" cy="281.4141" fill="#000000" rx="3" ry="3" style="stroke:#000000;stroke-width:1.0;"/><text fill="#000000" font-family="sans-serif" font-size="11" lengthAdjust="spacing" textLength="111" x="77.5" y="284.6245">Order History(JSON)</text><!--MD5=[7a4efa79503834a8de57201d4c68ac27]
link Patient to Doctor--><path codeLine="30" d="M142.373,444.863 C148.337,459.111 154.877,474.734 160.988,489.331 " fill="none" id="Patient-Doctor" style="stroke:#A80036;stroke-width:1.0;"/><line style="stroke:#A80036;stroke-width:1.0;" x1="161.0495" x2="169.6728" y1="489.4788" y2="494.5422"/><line style="stroke:#A80036;stroke-width:1.0;" x1="161.0495" x2="158.6032" y1="489.4788" y2="499.175"/><line style="stroke:#A80036;stroke-width:1.0;" x1="161.0495" x2="164.138" y1="489.4788" y2="496.8586"/><line style="stroke:#A80036;stroke-width:1.0;" x1="163.9673" x2="156.5875" y1="486.0896" y2="489.1781"/><line style="stroke:#A80036;stroke-width:1.0;" x1="142.3067" x2="133.6825" y1="444.7023" y2="439.6403"/><line style="stroke:#A80036;stroke-width:1.0;" x1="142.3067" x2="144.7515" y1="444.7023" y2="435.0057"/><line style="stroke:#A80036;stroke-width:1.0;" x1="142.3067" x2="139.217" y1="444.7023" y2="437.323"/><line style="stroke:#A80036;stroke-width:1.0;" x1="139.3895" x2="146.7688" y1="448.0919" y2="445.0023"/><!--MD5=[f809b2e913973b581a8fa890a5cf7d82]
link Chemist to Patient--><path codeLine="31" d="M124.603,299.613 C124.129,313.872 123.624,329.054 123.163,342.942 " fill="none" id="Chemist-Patient" style="stroke:#A80036;stroke-width:1.0;"/><line style="stroke:#A80036;stroke-width:1.0;" x1="123.1627" x2="128.8937" y1="342.9564" y2="351.1513"/><line style="stroke:#A80036;stroke-width:1.0;" x1="123.1627" x2="116.9003" y1="342.9564" y2="350.7527"/><line style="stroke:#A80036;stroke-width:1.0;" x1="123.1627" x2="122.897" y1="342.9564" y2="350.952"/><line style="stroke:#A80036;stroke-width:1.0;" x1="127.2269" x2="119.2313" y1="341.0904" y2="340.8247"/><line style="stroke:#A80036;stroke-width:1.0;" x1="124.6113" x2="118.8803" y1="299.3586" y2="291.1637"/><line style="stroke:#A80036;stroke-width:1.0;" x1="124.6113" x2="130.8737" y1="299.3586" y2="291.5623"/><line style="stroke:#A80036;stroke-width:1.0;" x1="124.6113" x2="124.877" y1="299.3586" y2="291.363"/><line style="stroke:#A80036;stroke-width:1.0;" x1="120.5471" x2="128.5427" y1="301.2246" y2="301.4903"/><!--MD5=[04d8c2426c319444337d0365b76195e2]
link User to Patient--><path codeLine="33" d="M66.9572,138.293 C55.6845,154.82 45.54,173.19 39.5,192 C26.0477,233.893 24.8862,249.498 39.5,291 C46.4227,310.66 58.9133,329.327 72.0926,345.189 " fill="none" id="User-Patient" style="stroke:#A80036;stroke-width:1.0;"/><line style="stroke:#A80036;stroke-width:1.0;" x1="77.4148" x2="71.3308" y1="345.2636" y2="350.4584"/><line style="stroke:#A80036;stroke-width:1.0;" x1="75.4668" x2="69.3828" y1="342.9822" y2="348.1769"/><line style="stroke:#A80036;stroke-width:1.0;" x1="71.7755" x2="76.9702" y1="344.819" y2="350.903"/><line style="stroke:#A80036;stroke-width:1.0;" x1="65.5855" x2="72.1415" y1="133.2757" y2="137.8603"/><line style="stroke:#A80036;stroke-width:1.0;" x1="63.8662" x2="70.4222" y1="135.7342" y2="140.3188"/><line style="stroke:#A80036;stroke-width:1.0;" x1="66.5711" x2="71.1558" y1="138.846" y2="132.29"/><!--MD5=[36f2be80eb1ab80d52c27fdeeb8b2c03]
link User to Chemist--><path codeLine="34" d="M126.5,139.763 C126.5,154.611 126.5,170.123 126.5,184.4 " fill="none" id="User-Chemist" style="stroke:#A80036;stroke-width:1.0;"/><line style="stroke:#A80036;stroke-width:1.0;" x1="130.5" x2="122.5" y1="187.744" y2="187.744"/><line style="stroke:#A80036;stroke-width:1.0;" x1="130.5" x2="122.5" y1="184.744" y2="184.744"/><line style="stroke:#A80036;stroke-width:1.0;" x1="126.5" x2="126.5" y1="183.744" y2="191.744"/><line style="stroke:#A80036;stroke-width:1.0;" x1="122.5" x2="130.5" y1="136.355" y2="136.355"/><line style="stroke:#A80036;stroke-width:1.0;" x1="122.5" x2="130.5" y1="139.355" y2="139.355"/><line style="stroke:#A80036;stroke-width:1.0;" x1="126.5" x2="126.5" y1="140.355" y2="132.355"/><!--MD5=[368f8f536ed01aad29fd9302b9bb6d68]
link User to Doctor--><path codeLine="35" d="M186.043,138.293 C197.316,154.82 207.46,173.19 213.5,192 C246.035,293.32 221.428,418.937 202.002,489.876 " fill="none" id="User-Doctor" style="stroke:#A80036;stroke-width:1.0;"/><line style="stroke:#A80036;stroke-width:1.0;" x1="204.9472" x2="197.2403" y1="494.2075" y2="492.062"/><line style="stroke:#A80036;stroke-width:1.0;" x1="205.7518" x2="198.0449" y1="491.3174" y2="489.1719"/><line style="stroke:#A80036;stroke-width:1.0;" x1="202.1665" x2="200.021" y1="489.2813" y2="496.9882"/><line style="stroke:#A80036;stroke-width:1.0;" x1="180.8586" x2="187.4144" y1="137.8604" y2="133.2754"/><line style="stroke:#A80036;stroke-width:1.0;" x1="182.578" x2="189.1337" y1="140.3188" y2="135.7338"/><line style="stroke:#A80036;stroke-width:1.0;" x1="186.429" x2="181.844" y1="138.8458" y2="132.29"/><!--MD5=[4271207f07bfeba1af0b56e0aab4f8aa]
@startuml
entity User{
    * Name
    * UiD (Primary Key)
    * email
    * phone_number
    * public_Key
    * PassWord(Hash)/ Private Key(Encrypt)
}

entity Patient{
    * Name
    * PiD (SK -> user.UiD)
    * Medical History(JSON)
}

entity Doctor{
    * Name
    * DiD (SK -> User.UiD)
    * Degree
    * Patient History(JSON)
}

entity Chemist{
    * Name
    * CiD(SK -> user.UiD)
    * Location
    * Order History(JSON)
}

Patient }|- -|{ Doctor
Chemist }|- -|{ Patient

User ||- -|| Patient
User ||- -|| Chemist
User ||- -|| Doctor
@enduml

PlantUML version 1.2021.15beta6(Unknown compile time)
(GPL source distribution)
Java Runtime: Java(TM) SE Runtime Environment
JVM: Java HotSpot(TM) 64-Bit Server VM
Default Encoding: UTF-8
Language: en
Country: US
--></g></svg>