<?xml version="1.0" encoding="UTF-8" standalone="no"?><svg xmlns="http://www.w3.org/2000/svg" xmlns:xlink="http://www.w3.org/1999/xlink" contentScriptType="application/ecmascript" contentStyleType="text/css" height="379px" preserveAspectRatio="none" style="width:415px;height:379px;background:#FFFFFF;" version="1.1" viewBox="0 0 415 379" width="415px" zoomAndPan="magnify"><defs><filter height="300%" id="f19lcrfu24yzbj" width="300%" x="-1" y="-1"><feGaussianBlur result="blurOut" stdDeviation="2.0"/><feColorMatrix in="blurOut" result="blurOut2" type="matrix" values="0 0 0 0 0 0 0 0 0 0 0 0 0 0 0 0 0 0 .4 0"/><feOffset dx="4.0" dy="4.0" in="blurOut2" result="blurOut3"/><feBlend in="SourceGraphic" in2="blurOut3" mode="normal"/></filter></defs><g><line style="stroke:#A80036;stroke-width:1.0;" x1="29" x2="29" y1="88.2969" y2="156.5625"/><line style="stroke:#A80036;stroke-width:1.0;stroke-dasharray:1.0,4.0;" x1="29" x2="29" y1="156.5625" y2="184.5625"/><line style="stroke:#A80036;stroke-width:1.0;" x1="29" x2="29" y1="184.5625" y2="294.9609"/><line style="stroke:#A80036;stroke-width:1.0;" x1="372" x2="372" y1="88.2969" y2="156.5625"/><line style="stroke:#A80036;stroke-width:1.0;stroke-dasharray:1.0,4.0;" x1="372" x2="372" y1="156.5625" y2="184.5625"/><line style="stroke:#A80036;stroke-width:1.0;" x1="372" x2="372" y1="184.5625" y2="294.9609"/><text fill="#000000" font-family="sans-serif" font-size="14" lengthAdjust="spacing" textLength="43" x="5" y="84.9951">Client</text><ellipse cx="29.5" cy="15" fill="#FEFECE" filter="url(#f19lcrfu24yzbj)" rx="8" ry="8" style="stroke:#A80036;stroke-width:2.0;"/><path d="M29.5,23 L29.5,50 M16.5,31 L42.5,31 M29.5,50 L16.5,65 M29.5,50 L42.5,65 " fill="none" filter="url(#f19lcrfu24yzbj)" style="stroke:#A80036;stroke-width:2.0;"/><text fill="#000000" font-family="sans-serif" font-size="14" lengthAdjust="spacing" textLength="43" x="5" y="306.9561">Client</text><ellipse cx="29.5" cy="320.2578" fill="#FEFECE" filter="url(#f19lcrfu24yzbj)" rx="8" ry="8" style="stroke:#A80036;stroke-width:2.0;"/><path d="M29.5,328.2578 L29.5,355.2578 M16.5,336.2578 L42.5,336.2578 M29.5,355.2578 L16.5,370.2578 M29.5,355.2578 L42.5,370.2578 " fill="none" filter="url(#f19lcrfu24yzbj)" style="stroke:#A80036;stroke-width:2.0;"/><rect fill="#FEFECE" filter="url(#f19lcrfu24yzbj)" height="30.2969" style="stroke:#A80036;stroke-width:1.5;" width="61" x="340" y="53"/><text fill="#000000" font-family="sans-serif" font-size="14" lengthAdjust="spacing" textLength="47" x="347" y="72.9951">Server</text><rect fill="#FEFECE" filter="url(#f19lcrfu24yzbj)" height="30.2969" style="stroke:#A80036;stroke-width:1.5;" width="61" x="340" y="293.9609"/><text fill="#000000" font-family="sans-serif" font-size="14" lengthAdjust="spacing" textLength="47" x="347" y="313.9561">Server</text><polygon fill="#A80036" points="40.5,115.4297,30.5,119.4297,40.5,123.4297,36.5,119.4297" style="stroke:#A80036;stroke-width:1.0;"/><polygon fill="#A80036" points="360.5,115.4297,370.5,119.4297,360.5,123.4297,364.5,119.4297" style="stroke:#A80036;stroke-width:1.0;"/><line style="stroke:#A80036;stroke-width:1.0;stroke-dasharray:2.0,2.0;" x1="34.5" x2="366.5" y1="119.4297" y2="119.4297"/><text fill="#000000" font-family="sans-serif" font-size="13" lengthAdjust="spacing" textLength="59" x="46.5" y="114.3638">SRP login</text><polygon fill="#A80036" points="40.5,144.5625,30.5,148.5625,40.5,152.5625,36.5,148.5625" style="stroke:#A80036;stroke-width:1.0;"/><polygon fill="#A80036" points="360.5,144.5625,370.5,148.5625,360.5,152.5625,364.5,148.5625" style="stroke:#A80036;stroke-width:1.0;"/><line style="stroke:#A80036;stroke-width:1.0;" x1="34.5" x2="366.5" y1="148.5625" y2="148.5625"/><text fill="#000000" font-family="sans-serif" font-size="13" lengthAdjust="spacing" textLength="319" x="46.5" y="143.4966">(OPTIONAL) communicate via the generated hash</text><polygon fill="#A80036" points="40.5,201.6953,30.5,205.6953,40.5,209.6953,36.5,205.6953" style="stroke:#A80036;stroke-width:1.0;"/><line style="stroke:#A80036;stroke-width:1.0;" x1="34.5" x2="371.5" y1="205.6953" y2="205.6953"/><text fill="#000000" font-family="sans-serif" font-size="13" lengthAdjust="spacing" textLength="209" x="46.5" y="200.6294">Sends the Encrypted private key</text><line style="stroke:#A80036;stroke-width:1.0;" x1="29.5" x2="71.5" y1="234.8281" y2="234.8281"/><line style="stroke:#A80036;stroke-width:1.0;" x1="71.5" x2="71.5" y1="234.8281" y2="247.8281"/><line style="stroke:#A80036;stroke-width:1.0;" x1="30.5" x2="71.5" y1="247.8281" y2="247.8281"/><polygon fill="#A80036" points="40.5,243.8281,30.5,247.8281,40.5,251.8281,36.5,247.8281" style="stroke:#A80036;stroke-width:1.0;"/><text fill="#000000" font-family="sans-serif" font-size="13" lengthAdjust="spacing" textLength="200" x="36.5" y="229.7622">Performs decryption of the key</text><polygon fill="#A80036" points="40.5,272.9609,30.5,276.9609,40.5,280.9609,36.5,276.9609" style="stroke:#A80036;stroke-width:1.0;"/><line style="stroke:#A80036;stroke-width:1.0;" x1="34.5" x2="371.5" y1="276.9609" y2="276.9609"/><text fill="#000000" font-family="sans-serif" font-size="13" lengthAdjust="spacing" textLength="245" x="46.5" y="271.895">Sends back encrypted Medical records</text><!--MD5=[9d29a6b27c50b52b9ceaf8052d518ae1]
@startuml
actor Client

Client <- -> Server:SRP login
Client <-> Server: (OPTIONAL) communicate via the generated hash
...
Client <- Server: Sends the Encrypted private key
Client -> Client: Performs decryption of the key
Server -> Client: Sends back encrypted Medical records
@enduml

PlantUML version 1.2021.15beta6(Unknown compile time)
(GPL source distribution)
Java Runtime: Java(TM) SE Runtime Environment
JVM: Java HotSpot(TM) 64-Bit Server VM
Default Encoding: UTF-8
Language: en
Country: US
--></g></svg>